<?xml version="1.0" encoding="UTF-8"?>
<svg width="27px" height="27px" viewBox="0 0 27 27" version="1.1" xmlns="http://www.w3.org/2000/svg" xmlns:xlink="http://www.w3.org/1999/xlink">
    <!-- Generator: Sketch 53.1 (72631) - https://sketchapp.com -->
    <title></title>
    <desc>Created with Sketch.</desc>
    <g id="Page-1" stroke="none" stroke-width="1" fill="none" fill-rule="evenodd">
        <g id="Desktop" transform="translate(-149.000000, -1361.000000)" fill="#333333" fill-rule="nonzero">
            <path d="M152.828125,1365.07812 C155.380221,1362.52603 158.479148,1361.25 162.125,1361.25 C165.770852,1361.25 168.869779,1362.52603 171.421875,1365.07812 C173.973971,1367.63022 175.25,1370.72915 175.25,1374.375 C175.25,1378.02085 173.973971,1381.11978 171.421875,1383.67188 C168.869779,1386.22397 165.770852,1387.5 162.125,1387.5 C158.479148,1387.5 155.380221,1386.22397 152.828125,1383.67188 C150.276029,1381.11978 149,1378.02085 149,1374.375 C149,1370.72915 150.276029,1367.63022 152.828125,1365.07812 Z M170.464844,1367.26562 C169.325515,1368.95183 167.388686,1370.41015 164.654297,1371.64062 C164.927736,1372.23308 165.223957,1372.93945 165.542969,1373.75977 C168.095065,1373.5319 170.60155,1373.48633 173.0625,1373.62305 C172.925781,1371.20767 172.059904,1369.08855 170.464844,1367.26562 Z M162.125,1363.4375 C161.350257,1363.4375 160.461594,1363.55143 159.458984,1363.7793 C160.826179,1365.14649 162.238925,1367.12889 163.697266,1369.72656 C166.158215,1368.72395 167.958328,1367.47071 169.097656,1365.9668 C167.046865,1364.28059 164.722669,1363.4375 162.125,1363.4375 Z M157.203125,1364.66797 C154.286444,1366.17188 152.395187,1368.51886 151.529297,1371.70898 L153.238281,1371.70898 C156.200536,1371.70898 158.95767,1371.32162 161.509766,1370.54688 C160.188144,1368.17707 158.752612,1366.21746 157.203125,1364.66797 Z M151.1875,1373.82812 L151.1875,1374.375 C151.1875,1377.15496 152.098949,1379.5703 153.921875,1381.62109 C155.653654,1378.3854 158.433575,1375.97006 162.261719,1374.375 C162.489584,1374.28385 162.808592,1374.19271 163.21875,1374.10156 C162.945311,1373.37239 162.717449,1372.82552 162.535156,1372.46094 C159.800768,1373.32683 156.656268,1373.80534 153.101562,1373.89648 C152.91927,1373.89648 152.600263,1373.88509 152.144531,1373.8623 C151.6888,1373.83952 151.369793,1373.82812 151.1875,1373.82812 Z M162.125,1385.3125 C163.537767,1385.3125 164.836583,1385.08464 166.021484,1384.62891 C165.793619,1382.71483 165.451825,1380.91472 164.996094,1379.22852 C164.813801,1378.45377 164.449221,1377.33725 163.902344,1375.87891 C163.355466,1376.01563 162.9681,1376.15234 162.740234,1376.28906 C159.322249,1377.83855 156.884122,1380.0716 155.425781,1382.98828 C157.431,1384.53777 159.66405,1385.3125 162.125,1385.3125 Z M168.003906,1383.53516 C171.011734,1381.57551 172.675129,1378.93231 172.994141,1375.60547 C170.305325,1375.42318 168.049488,1375.42318 166.226562,1375.60547 C166.727867,1377.01824 167.001302,1377.88411 167.046875,1378.20312 C167.457033,1379.79819 167.776041,1381.57551 168.003906,1383.53516 Z" id=""></path>
        </g>
    </g>
</svg>