<?xml version="1.0" encoding="UTF-8"?>
<svg width="18px" height="19px" viewBox="0 0 18 19" version="1.1" xmlns="http://www.w3.org/2000/svg" xmlns:xlink="http://www.w3.org/1999/xlink">
    <!-- Generator: Sketch 62 (91390) - https://sketch.com -->
    <title></title>
    <desc>Created with Sketch.</desc>
    <g id="Page-1" stroke="none" stroke-width="1" fill="none" fill-rule="evenodd">
        <path d="M6.1328125,18.25 C6.41927083,18.25 6.5625,18.1067708 6.5625,17.8203125 L6.5625,16.296875 C6.35416667,16.3489583 6.06770833,16.375 5.703125,16.375 C5.20833333,16.375 4.78515625,16.2578125 4.43359375,16.0234375 C4.08203125,15.7890625 3.8671875,15.6002604 3.7890625,15.4570312 C3.7109375,15.3138021 3.65885417,15.1901042 3.6328125,15.0859375 C3.37239583,14.4088542 3.046875,13.9661458 2.65625,13.7578125 C2.13541667,13.3932292 2.1484375,13.2109375 2.6953125,13.2109375 C3.26822917,13.2630208 3.72395833,13.5755208 4.0625,14.1484375 C4.42708333,14.7994792 4.93489583,15.125 5.5859375,15.125 C5.95052083,15.125 6.2890625,15.046875 6.6015625,14.890625 C6.6796875,14.3697917 6.86197917,13.9661458 7.1484375,13.6796875 C5.95052083,13.5234375 4.98697917,13.1393229 4.2578125,12.5273438 C3.52864583,11.9153646 3.1640625,10.828125 3.1640625,9.265625 C3.1640625,8.328125 3.46354167,7.52083333 4.0625,6.84375 C3.80208333,6.08854167 3.828125,5.29427083 4.140625,4.4609375 L4.3359375,4.4609375 C4.93489583,4.4609375 5.67708333,4.7734375 6.5625,5.3984375 C7.31770833,5.19010417 8.046875,5.0859375 8.75,5.0859375 C9.453125,5.0859375 10.1822917,5.19010417 10.9375,5.3984375 C11.8229167,4.7734375 12.5651042,4.4609375 13.1640625,4.4609375 L13.359375,4.4609375 C13.671875,5.29427083 13.6979167,6.08854167 13.4375,6.84375 C14.0364583,7.52083333 14.3359375,8.328125 14.3359375,9.265625 C14.3359375,10.828125 13.9648438,11.9153646 13.2226562,12.5273438 C12.4804688,13.1393229 11.5104167,13.5234375 10.3125,13.6796875 C10.7291667,14.0442708 10.9375,14.6041667 10.9375,15.359375 C10.9375,15.828125 10.9309896,16.3424479 10.9179688,16.9023438 C10.9049479,17.4622396 10.8984375,17.7552083 10.8984375,17.78125 C10.8984375,18.09375 11.0546875,18.25 11.3671875,18.25 L11.5234375,18.25 C13.2682292,17.6510417 14.7005208,16.5703125 15.8203125,15.0078125 C16.9401042,13.4453125 17.5,11.6875 17.5,9.734375 C17.5,7.26041667 16.6471354,5.14453125 14.9414062,3.38671875 C13.2356771,1.62890625 11.171875,0.75 8.75,0.75 C6.328125,0.75 4.2578125,1.63541667 2.5390625,3.40625 C0.846354167,5.15104167 0,7.26041667 0,9.734375 C0,11.7135417 0.553385417,13.4778646 1.66015625,15.0273438 C2.76692708,16.5768229 4.20572917,17.6510417 5.9765625,18.25 L6.1328125,18.25 Z" id="" fill="#333333" fill-rule="nonzero"></path>
    </g>
</svg>