<?xml version="1.0" encoding="UTF-8"?>
<svg width="27px" height="27px" viewBox="0 0 27 27" version="1.1" xmlns="http://www.w3.org/2000/svg" xmlns:xlink="http://www.w3.org/1999/xlink">
    <!-- Generator: Sketch 53.1 (72631) - https://sketchapp.com -->
    <title></title>
    <desc>Created with Sketch.</desc>
    <g id="Page-1" stroke="none" stroke-width="1" fill="none" fill-rule="evenodd">
        <g id="Desktop" transform="translate(-206.000000, -1361.000000)" fill="#333333" fill-rule="nonzero">
            <path d="M232.75,1364.53125 L232.75,1384.28711 C232.75,1385.153 232.430993,1385.90494 231.792969,1386.54297 C231.154945,1387.18099 230.380213,1387.5 229.46875,1387.5 L209.78125,1387.5 C208.869787,1387.5 208.095055,1387.18099 207.457031,1386.54297 C206.819007,1385.90494 206.5,1385.153 206.5,1384.28711 L206.5,1364.53125 C206.5,1363.61979 206.819007,1362.84506 207.457031,1362.20703 C208.095055,1361.56901 208.869787,1361.25 209.78125,1361.25 L229.46875,1361.25 C230.380213,1361.25 231.154945,1361.56901 231.792969,1362.20703 C232.430993,1362.84506 232.75,1363.61979 232.75,1364.53125 Z M223.453125,1370.54688 C222.404943,1369.45312 221.128914,1368.90625 219.625,1368.90625 C218.121086,1368.90625 216.833664,1369.44173 215.762695,1370.5127 C214.691726,1371.58366 214.15625,1372.87109 214.15625,1374.375 C214.15625,1375.87891 214.691726,1377.16634 215.762695,1378.2373 C216.833664,1379.30827 218.121086,1379.84375 219.625,1379.84375 C221.128914,1379.84375 222.416336,1379.30827 223.487305,1378.2373 C224.558274,1377.16634 225.09375,1375.87891 225.09375,1374.375 C225.09375,1372.87109 224.54688,1371.59506 223.453125,1370.54688 Z M230.5625,1367.8125 L230.5625,1364.53125 C230.5625,1363.80208 230.19792,1363.4375 229.46875,1363.4375 L226.1875,1363.4375 C225.45833,1363.4375 225.09375,1363.80208 225.09375,1364.53125 L225.09375,1367.8125 C225.09375,1368.54167 225.45833,1368.90625 226.1875,1368.90625 L229.46875,1368.90625 C230.19792,1368.90625 230.5625,1368.54167 230.5625,1367.8125 Z M229.537109,1385.3125 C230.220707,1385.3125 230.5625,1384.94792 230.5625,1384.21875 L230.5625,1372.1875 L227.007812,1372.1875 C227.190105,1372.77995 227.28125,1373.50911 227.28125,1374.375 C227.28125,1376.51694 226.552091,1378.31705 225.09375,1379.77539 C223.589836,1381.2793 221.766938,1382.03125 219.625,1382.03125 C217.528635,1382.03125 215.728523,1381.2793 214.224609,1379.77539 C212.720696,1378.27148 211.96875,1376.47136 211.96875,1374.375 C211.96875,1373.6914 212.082681,1372.96224 212.310547,1372.1875 L208.6875,1372.1875 L208.6875,1384.21875 C208.6875,1384.53776 208.801431,1384.7998 209.029297,1385.00488 C209.257163,1385.20996 209.530597,1385.3125 209.849609,1385.3125 L229.537109,1385.3125 Z" id=""></path>
        </g>
    </g>
</svg>