<?xml version="1.0" encoding="UTF-8"?>
<svg width="27px" height="27px" viewBox="0 0 27 27" version="1.1" xmlns="http://www.w3.org/2000/svg" xmlns:xlink="http://www.w3.org/1999/xlink">
    <!-- Generator: Sketch 53.1 (72631) - https://sketchapp.com -->
    <title></title>
    <desc>Created with Sketch.</desc>
    <g id="Page-1" stroke="none" stroke-width="1" fill="none" fill-rule="evenodd">
        <g id="Desktop" transform="translate(-264.000000, -1361.000000)" fill="#333333" fill-rule="nonzero">
            <path d="M288.130859,1361.25 C288.72331,1361.25 289.224607,1361.44368 289.634766,1361.83105 C290.044924,1362.21843 290.25,1362.70833 290.25,1363.30078 L290.25,1385.24414 C290.25,1385.83659 290.044924,1386.36067 289.634766,1386.81641 C289.224607,1387.27214 288.72331,1387.5 288.130859,1387.5 L266.255859,1387.5 C265.663408,1387.5 265.139325,1387.27214 264.683594,1386.81641 C264.227862,1386.36067 264,1385.83659 264,1385.24414 L264,1363.30078 C264,1362.70833 264.216469,1362.21843 264.649414,1361.83105 C265.082359,1361.44368 265.617835,1361.25 266.255859,1361.25 L288.130859,1361.25 Z M272.134766,1383.125 L272.134766,1371.43555 L268.375,1371.43555 L268.375,1383.125 L272.134766,1383.125 Z M268.921875,1369.11133 C269.28646,1369.47591 269.764971,1369.6582 270.357422,1369.6582 C270.949873,1369.6582 271.439777,1369.46452 271.827148,1369.07715 C272.21452,1368.68978 272.408203,1368.22266 272.408203,1367.67578 C272.408203,1367.08333 272.225913,1366.59343 271.861328,1366.20605 C271.496743,1365.81868 271.018232,1365.625 270.425781,1365.625 C269.83333,1365.625 269.343426,1365.81868 268.956055,1366.20605 C268.568683,1366.59343 268.375,1367.08333 268.375,1367.67578 C268.375,1368.22266 268.55729,1368.70117 268.921875,1369.11133 Z M285.875,1383.125 L285.875,1376.28906 C285.875,1374.60286 285.476241,1373.32683 284.678711,1372.46094 C283.881181,1371.59505 282.844407,1371.16211 281.568359,1371.16211 C280.201165,1371.16211 279.061854,1371.80012 278.150391,1373.07617 L278.150391,1371.43555 L274.390625,1371.43555 L274.390625,1383.125 L278.150391,1383.125 L278.150391,1376.49414 C278.150391,1376.03841 278.195963,1375.7194 278.287109,1375.53711 C278.651695,1374.62565 279.289709,1374.16992 280.201172,1374.16992 C281.47722,1374.16992 282.115234,1375.01301 282.115234,1376.69922 L282.115234,1383.125 L285.875,1383.125 Z" id=""></path>
        </g>
    </g>
</svg>