<?xml version="1.0" encoding="UTF-8"?>
<svg width="166px" height="200px" viewBox="0 0 166 200" version="1.1" xmlns="http://www.w3.org/2000/svg" xmlns:xlink="http://www.w3.org/1999/xlink">
    <!-- Generator: Sketch 53.1 (72631) - https://sketchapp.com -->
    <title>Fill 1</title>
    <desc>Created with Sketch.</desc>
    <g id="Page-1" stroke="none" stroke-width="1" fill="none" fill-rule="evenodd">
        <g id="Desktop" transform="translate(-739.000000, -150.000000)" fill="#FFFFFF">
            <path d="M896.942432,226.626667 L882.861406,272.18359 L847.221406,207.726154 L871.037816,162.806154 L896.87679,225.202051 C897.062432,225.654359 897.087047,226.16 896.942432,226.626667 L896.942432,226.626667 Z M747.206021,226.637949 C747.06038,226.168205 747.086021,225.660513 747.274739,225.206154 L773.318842,162.864615 L796.599867,207.717949 L761.271662,272.145641 L747.206021,226.637949 Z M797.977303,221.620513 L800.977303,216.150769 L803.816278,221.620513 L797.977303,221.620513 Z M854.046021,236.379487 L879.055252,281.610256 L829.518842,333.2 L854.046021,236.379487 Z M796.38756,229.512821 L847.64397,229.512821 L822.06756,330.475897 L796.38756,229.512821 Z M789.95679,236.246154 L814.612175,333.184615 L765.084996,281.605128 L789.95679,236.246154 Z M842.807047,216.052308 L845.886021,221.620513 L839.855252,221.620513 L842.807047,216.052308 Z M904.168073,222.182564 L875.358842,152.611282 C874.733201,151.10359 873.274739,150.08 871.644996,150.003077 C870.000893,149.94359 868.468585,150.807179 867.701406,152.250256 L830.921919,221.620513 L812.70756,221.620513 L776.720893,152.288205 C775.966021,150.833846 774.42038,149.950769 772.782432,150.006154 C771.145508,150.074872 769.679867,151.09641 769.051149,152.606154 L739.992688,222.163077 C739.092175,224.318974 738.975252,226.734359 739.665508,228.967179 L756.087047,282.09641 C756.545508,283.577436 757.354739,284.950769 758.425508,286.064615 L818.132175,348.246154 C818.808073,348.950769 819.665508,349.451282 820.594739,349.713846 C821.057303,349.894359 821.553714,350 822.074739,350 C822.595765,350 823.094226,349.893333 823.557816,349.712821 C824.484996,349.449231 825.338329,348.948718 826.012175,348.246154 L885.719867,286.065641 C886.792688,284.946667 887.601919,283.573333 888.058329,282.094359 L904.482944,228.956923 C905.169098,226.735385 905.056278,224.330256 904.168073,222.182564 L904.168073,222.182564 Z" id="Fill-1"></path>
        </g>
    </g>
</svg>