<?xml version="1.0" encoding="UTF-8"?>
<svg width="33px" height="27px" viewBox="0 0 33 27" version="1.1" xmlns="http://www.w3.org/2000/svg" xmlns:xlink="http://www.w3.org/1999/xlink">
    <!-- Generator: Sketch 53.1 (72631) - https://sketchapp.com -->
    <title></title>
    <desc>Created with Sketch.</desc>
    <g id="Page-1" stroke="none" stroke-width="1" fill="none" fill-rule="evenodd">
        <g id="Desktop" transform="translate(-321.000000, -1361.000000)" fill="#333333" fill-rule="nonzero">
            <path d="M353.765625,1364.39453 C352.945308,1365.67058 351.851569,1366.80989 350.484375,1367.8125 L350.484375,1368.63281 C350.484375,1373.41799 348.764015,1377.75877 345.323242,1381.65527 C341.88247,1385.55178 337.313831,1387.5 331.617188,1387.5 C327.971336,1387.5 324.598974,1386.49741 321.5,1384.49219 C322.22917,1384.58333 322.753254,1384.62891 323.072266,1384.62891 C326.125666,1384.62891 328.860014,1383.67188 331.275391,1381.75781 C329.862623,1381.71224 328.586594,1381.26791 327.447266,1380.4248 C326.307937,1379.5817 325.533205,1378.49936 325.123047,1377.17773 C325.669925,1377.26888 326.080077,1377.31445 326.353516,1377.31445 C326.809247,1377.31445 327.401689,1377.22331 328.130859,1377.04102 C326.626946,1376.722 325.36231,1375.95866 324.336914,1374.75098 C323.311518,1373.54329 322.798828,1372.14194 322.798828,1370.54688 L322.798828,1370.47852 C323.801437,1371.02539 324.804031,1371.29883 325.806641,1371.29883 C323.846995,1370.02278 322.867188,1368.1771 322.867188,1365.76172 C322.867188,1364.62239 323.163408,1363.52865 323.755859,1362.48047 C327.264992,1366.80992 331.799451,1369.11133 337.359375,1369.38477 C337.268229,1369.06575 337.222656,1368.56446 337.222656,1367.88086 C337.222656,1366.01236 337.860671,1364.44011 339.136719,1363.16406 C340.412767,1361.88801 341.985017,1361.25 343.853516,1361.25 C345.722015,1361.25 347.317051,1361.95637 348.638672,1363.36914 C350.005866,1363.14127 351.418612,1362.59441 352.876953,1361.72852 C352.421222,1363.32358 351.441414,1364.55403 349.9375,1365.41992 C351.350267,1365.2832 352.626296,1364.94141 353.765625,1364.39453 Z" id=""></path>
        </g>
    </g>
</svg>